<svg id="Layer_1" height="512" viewBox="0 0 512 512" width="512" xmlns="http://www.w3.org/2000/svg" data-name="Layer 1"><path d="m379.01 17.54-209.86-.54-.02.02-64.28 66.24-.64 301.61a28.869 28.869 0 0 0 28.85 28.95h245.11a28.876 28.876 0 0 0 28.85-28.83l.77-338.49a28.87 28.87 0 0 0 -28.78-28.96z" fill="#ccd3df"/><path d="m375.78 326.95a11.581 11.581 0 0 1 0 12.75l-4.66 7.08a11.571 11.571 0 0 0 -1.89 7.02l.47 8.56a11.587 11.587 0 0 1 -6.34 10.97l-7.57 3.84a11.532 11.532 0 0 0 -5.11 5.11l-3.83 7.59a11.538 11.538 0 0 1 -10.96 6.34l-8.55-.47c-.44-.02-.88-.02-1.31 0a11.522 11.522 0 0 0 -5.69 1.9l-7.07 4.67a11.565 11.565 0 0 1 -12.74 0l-7.06-4.67a11.591 11.591 0 0 0 -5.7-1.9c-.43-.02-.87-.02-1.31 0l-8.55.47a11.562 11.562 0 0 1 -10.96-6.34l-3.82-7.59a11.633 11.633 0 0 0 -5.11-5.11l-7.58-3.84a11.562 11.562 0 0 1 -6.33-10.97l.47-8.56a11.648 11.648 0 0 0 -1.9-7.02l-4.66-7.08a11.619 11.619 0 0 1 0-12.75l4.66-7.08a11.6 11.6 0 0 0 1.9-7.01l-.47-8.56a11.567 11.567 0 0 1 6.33-10.98l7.58-3.83a11.655 11.655 0 0 0 5.11-5.12l3.82-7.59a11.582 11.582 0 0 1 10.96-6.34l8.55.47a11.549 11.549 0 0 0 7.01-1.9l7.06-4.66a11.565 11.565 0 0 1 12.74 0l7.07 4.66a11.5 11.5 0 0 0 7 1.9l8.55-.47a11.573 11.573 0 0 1 10.96 6.34l3.83 7.59a11.554 11.554 0 0 0 5.11 5.12l7.57 3.83a11.592 11.592 0 0 1 6.34 10.98l-.47 8.56a11.523 11.523 0 0 0 1.89 7.01z" fill="#f58387"/><path d="m341.74 394.99a11.451 11.451 0 0 1 -5.85 1.22l-8.55-.47c-.44-.02-.88-.02-1.31 0l.01.28v86.79l-.29.4 16.05 11.79v-99.88z" fill="#4aafac"/><path d="m326.04 396.02v86.79l-.29.4-18.85-13.85-18.85 13.85-.29-.4v-86.79l.01-.28a11.591 11.591 0 0 1 5.7 1.9l7.06 4.67a11.565 11.565 0 0 0 12.74 0l7.07-4.67a11.522 11.522 0 0 1 5.69-1.9z" fill="#53d8d8"/><path d="m287.76 482.81v-86.79l.01-.28c-.43-.02-.87-.02-1.31 0l-8.55.47a11.414 11.414 0 0 1 -5.84-1.22l-.06.13v99.88l16.04-11.79z" fill="#4aafac"/><path d="m306.9 286.1a47.225 47.225 0 1 1 -47.16 47.23 47.2 47.2 0 0 1 47.16-47.23z" fill="#53d8d8"/><path d="m344.41 102.72v24.61a4 4 0 0 1 -4 4h-14.51a37.773 37.773 0 0 0 2.71-14.91 39.91 39.91 0 0 0 -4.08-17.55l.3-.15h15.58a4 4 0 0 1 4 4z" fill="#6d7486"/><path d="m325.9 131.33a34.675 34.675 0 0 1 -12.61 15.78c-23.87 16.23-51.37-6.43-51.37-6.43-3.15-2.73-6.1-1.8-7.69-.23-15.8 15.65-40.15 20.14-56.95 5.56a41.305 41.305 0 0 1 -11.01-14.68 35.067 35.067 0 0 1 2.36-32.49 37.275 37.275 0 0 1 22.87-16.59 40.22 40.22 0 0 1 9.9-1.13h70.72a40.021 40.021 0 0 1 5.99.41c13.05 1.99 21.76 8.26 26.42 17.34a39.91 39.91 0 0 1 4.08 17.55 37.773 37.773 0 0 1 -2.71 14.91z" fill="#5fa8ed"/><path d="m188.44 98.72.19.12a35.067 35.067 0 0 0 -2.36 32.49h-14.68a4 4 0 0 1 -4-4v-24.61a4 4 0 0 1 4-4z" fill="#6d7486"/><path d="m104.21 384.87a28.869 28.869 0 0 0 28.85 28.95h30a28.869 28.869 0 0 1 -28.85-28.95l.574-332.456-29.934 30.846z" fill="#b1b8c4"/><path d="m289.74 333.33a47.224 47.224 0 0 1 32.16-44.776 47.225 47.225 0 1 0 0 89.542 47.219 47.219 0 0 1 -32.16-44.766z" fill="#4eb5b2"/><path d="m330.3 326.1-11.7 11.42 2.76 16.13-14.46-7.62-14.46 7.62 2.76-16.13-11.7-11.42 16.17-2.35 7.23-14.67 7.23 14.67z" fill="#eadf53"/><path d="m104.85 83.06 64.28-66.04-.14 47.19a19.237 19.237 0 0 1 -19.29 19.2l-44.85-.15z" fill="#9ba1aa"/><path d="m310 441h-6a6 6 0 0 1 0-12h6a6 6 0 0 1 0 12z" fill="#4eb5b2"/><g fill="#9ba1aa"><path d="m192.541 184.871h-38.607a6 6 0 0 1 0-12h38.607a6 6 0 0 1 0 12z"/><path d="m358.066 184.871h-128.043a6 6 0 0 1 0-12h128.043a6 6 0 0 1 0 12z"/><path d="m216.28 212.887h-62.346a6 6 0 0 1 0-12h62.346a6 6 0 1 1 0 12z"/><path d="m358.066 212.887h-102.951a6 6 0 0 1 0-12h102.951a6 6 0 0 1 0 12z"/><path d="m192.541 241.917h-38.607a6 6 0 0 1 0-12h38.607a6 6 0 0 1 0 12z"/><path d="m358.066 241.917h-128.043a6 6 0 0 1 0-12h128.043a6 6 0 0 1 0 12z"/></g><path d="m310 425h-6a6 6 0 0 1 0-12h6a6 6 0 0 1 0 12z" fill="#4eb5b2"/><path d="m310 457h-6a6 6 0 0 1 0-12h6a6 6 0 0 1 0 12z" fill="#4eb5b2"/><g fill="#f4f8fc"><path d="m130.352 383.728a6 6 0 0 1 -6-6v-82.617a6 6 0 0 1 12 0v82.617a6 6 0 0 1 -6 6z"/><path d="m130.352 281.353a6 6 0 0 1 -6-6v-3.2a6 6 0 0 1 12 0v3.2a6 6 0 0 1 -6 6z"/></g></svg>