<svg id="Capa_1" enable-background="new 0 0 512 512" height="512" viewBox="0 0 512 512" width="512" xmlns="http://www.w3.org/2000/svg"><g><g><g><path d="m142.146 77.427v-46.367h109.671c5.574 0 10.582 3.403 12.636 8.584l14.977 37.783-71.829 16.813z" fill="#8ac9fe"/><path d="m279.427 77.422h-21.345l-14.977-37.783c-2.057-5.174-7.067-8.579-12.642-8.579h21.355c5.575 0 10.585 3.405 12.632 8.579z" fill="#60b7ff"/><path d="m377.785 77.427h-198.274c-5.574 0-10.582-3.402-12.636-8.584l-11.574-29.199c-2.054-5.181-7.063-8.584-12.636-8.584h-96.079c-7.507 0-13.592 6.086-13.592 13.593v19.182c0 7.507-6.086 13.593-13.593 13.593h-1.254c-10.022-.001-18.147 8.124-18.147 18.146v278.366c0 16.784 13.606 30.39 30.39 30.39h365.542v-308.756c.001-10.022-8.124-18.147-18.147-18.147z" fill="#fef0ae"/><g fill="#fee97d"><path d="m395.933 119.103v285.227h-365.544c-3.929 0-7.674-.741-11.12-2.109 6.974-2.819 12.231-8.476 15.893-16.726 1.594-3.6 2.664-7.406 3.353-11.284 0 0 42.236-237.225 42.451-239.08 1.047-9.03 8.711-16.028 18.024-16.028z"/><path d="m179.514 77.422h-20.574c-5.575 0-10.585-3.395-12.642-8.579l-11.572-29.204c-2.047-5.174-7.057-8.579-12.632-8.579h20.573c5.575 0 10.585 3.405 12.632 8.579l11.572 29.204c2.058 5.185 7.067 8.579 12.643 8.579z"/><path d="m395.933 95.578v308.752h-20.573v-308.752c0-10.029-8.126-18.156-18.146-18.156h20.573c10.02 0 18.146 8.127 18.146 18.156z"/></g><path d="m121.666 119.099h338.134c10.022 0 18.147 8.125 18.147 18.147l-42.733 248.937c0 10.022-8.125 18.147-18.147 18.147h-356.281-30.393c13.202 0 22.283-6.743 27.716-19.465 1.456-3.41 2.436-7.004 3.087-10.654l41.709-233.532c.328-1.838.52-3.695.735-5.55 1.049-9.025 8.72-16.03 18.026-16.03z" fill="#fee45a"/><path d="m477.948 137.249-42.731 248.936c0 10.019-8.126 18.146-18.146 18.146h-21.046c10.019 0 18.146-8.126 18.146-18.146l42.73-248.936c0-10.029-8.126-18.146-18.146-18.146h21.046c10.021 0 18.147 8.117 18.147 18.146z" fill="#fed402"/><g><path d="m189.141 333.874h-63.637c-4.143 0-7.5-3.358-7.5-7.5s3.357-7.5 7.5-7.5h63.637c4.143 0 7.5 3.358 7.5 7.5s-3.358 7.5-7.5 7.5z" fill="#fac600"/></g><g><path d="m214.396 364.469h-101.236c-4.143 0-7.5-3.358-7.5-7.5s3.357-7.5 7.5-7.5h101.235c4.143 0 7.5 3.358 7.5 7.5s-3.357 7.5-7.499 7.5z" fill="#fac600"/></g></g></g><g><circle cx="420.185" cy="389.125" fill="#eaf6ff" r="91.815"/><path d="m512 389.12c0 50.713-41.105 91.818-91.818 91.818-19.04 0-36.733-5.802-51.402-15.728 9.916 3.672 20.645 5.678 31.837 5.678 50.703 0 91.808-41.105 91.808-91.808 0-31.662-16.026-59.58-40.406-76.09 35.015 12.941 59.981 46.619 59.981 86.13z" fill="#d8ecfe"/></g><path d="m486.424 420.254c-1.303-3.933-5.545-6.064-9.478-4.763l-4.504 1.491c4.653-8.608 7.186-18.316 7.186-28.303 0-32.829-26.708-59.537-59.537-59.537s-59.537 26.708-59.537 59.537c0 19.808 9.811 38.262 26.244 49.365 1.287.87 2.747 1.286 4.191 1.286 2.407 0 4.772-1.157 6.222-3.302 2.318-3.432 1.416-8.095-2.017-10.414-12.298-8.309-19.641-22.116-19.641-36.935 0-24.558 19.979-44.537 44.537-44.537s44.537 19.979 44.537 44.537c0 6.911-1.623 13.643-4.62 19.713l-.143-4.862c-.122-4.14-3.551-7.42-7.717-7.277-4.141.121-7.398 3.576-7.277 7.716l.807 27.512c.069 2.369 1.254 4.565 3.195 5.924 1.276.894 2.781 1.356 4.303 1.356.791 0 1.587-.125 2.356-.38l26.129-8.65c3.933-1.301 6.066-5.544 4.764-9.477z" fill="#8ebac5"/></g></svg>