<?xml version="1.0" encoding="iso-8859-1"?>
<!-- Generator: Adobe Illustrator 19.0.0, SVG Export Plug-In . SVG Version: 6.00 Build 0)  -->
<svg version="1.1" id="Capa_1" xmlns="http://www.w3.org/2000/svg" xmlns:xlink="http://www.w3.org/1999/xlink" x="0px" y="0px"
	 viewBox="0 0 512.001 512.001" style="enable-background:new 0 0 512.001 512.001;" xml:space="preserve">
<path style="fill:#FF7816;" d="M90.41,240.037v226.969c0,24.85,20.144,44.994,44.994,44.994H240.39l29.996-166.978L240.39,240.037
	L90.41,240.037L90.41,240.037z"/>
<path style="fill:#FF4B00;" d="M330.378,240.037l-29.996,104.986L330.378,512h104.986c24.85,0,44.994-20.144,44.994-44.994V240.037
	L330.378,240.037L330.378,240.037z"/>
<rect x="240.388" y="240.038" style="fill:#76E2F8;" width="89.988" height="271.963"/>
<path style="fill:#25D9F8;" d="M267.685,5.068c-19.796,8.398-33.595,26.096-36.894,47.094l-6.898,42.993l-34.496-30.597
	c-16.197-14.397-38.094-18.897-58.492-12.597c-45.292,14.099-57.591,71.991-22.497,103.486
	c16.798,14.998,40.196,19.496,61.493,11.997l45.893-16.798l24.597-8.999l71.39-26.096c21.298-7.499,36.296-26.396,39.595-48.593
	C357.973,20.466,311.179-13.231,267.685,5.068z M159.701,139.25c-11.099,3.897-22.797,1.5-31.195-6.3
	c-18.299-16.197-11.398-45.294,11.398-52.193c9.898-3.301,21.296-1.201,29.696,6.298l38.694,34.195L159.701,139.25z M321.679,62.76
	c-1.8,11.398-9.299,20.697-20.098,24.597l-48.593,17.699l7.499-48.394c1.8-10.799,8.7-19.496,18.598-23.696
	C300.982,23.666,324.978,38.763,321.679,62.76z"/>
<polygon points="271.44,98.391 200.309,124.289 271.444,98.402 "/>
<rect x="285.382" y="240.038" style="fill:#25D9F8;" width="44.994" height="271.963"/>
<path style="fill:#76E2F8;" d="M223.892,95.155l-34.496-30.597c-16.197-14.397-38.094-18.897-58.492-12.597
	c-45.292,14.099-57.591,71.991-22.497,103.486c16.798,14.998,40.196,19.496,61.493,11.997l45.893-16.798l24.597-8.999
	L223.892,95.155z M159.701,139.25c-11.099,3.897-22.797,1.5-31.195-6.3c-18.299-16.197-11.398-45.294,11.398-52.193
	c9.898-3.301,21.296-1.201,29.696,6.298l38.694,34.195L159.701,139.25z"/>
<path style="fill:#FF7816;" d="M481.602,149.595L455.942,79.13c-4.115-11.292-12.376-20.314-23.259-25.397
	c-10.853-5.067-23.068-5.58-34.404-1.494L271.444,98.402l-11.206,51.646l52.226,61.102L481.602,149.595z"/>
<path style="fill:#FF9F00;" d="M186.886,129.178L60.033,175.343c-11.292,4.115-20.314,12.376-25.397,23.259
	c-5.082,10.897-5.609,23.112-1.494,34.404l25.646,70.464l169.123-61.559l10.414-53.811L186.886,129.178z"/>
<polygon points="312.463,211.15 285.862,220.831 312.465,211.154 "/>
<polygon style="fill:#76E2F8;" points="312.38,211.24 270.085,226.538 227.791,241.836 186.996,129.051 200.194,124.252 
	230.19,113.453 271.585,98.455 "/>
<polygon style="fill:#A8EBFA;" points="270.085,226.538 227.791,241.836 186.996,129.051 200.194,124.252 230.19,113.453 "/>
<g>
</g>
<g>
</g>
<g>
</g>
<g>
</g>
<g>
</g>
<g>
</g>
<g>
</g>
<g>
</g>
<g>
</g>
<g>
</g>
<g>
</g>
<g>
</g>
<g>
</g>
<g>
</g>
<g>
</g>
</svg>
