<svg width="93" height="93" version="1.1" xmlns="http://www.w3.org/2000/svg"><path fill="rgb(0,0,0)" stroke="rgb(0,0,0)" stroke-width="1" opacity="0" d="M 0 0 L 41 0.5 L 35 5.5 L 33.5 15 L 29.5 11 L 21.5 9 Q 14.1 10.1 11 15.5 L 9 22.5 L 11 29.5 L 15 33.5 L 7.5 34 L 1 39.5 L 0.5 41 L 0 0 Z "></path><path fill="rgb(0,0,0)" stroke="rgb(0,0,0)" stroke-width="1" opacity="0" d="M 52.5 0 L 93 0 L 93 40.5 L 92 40.5 L 87.5 35 L 78 33.5 L 82 29.5 L 84 21.5 Q 82.9 14.1 77.5 11 L 70.5 9 L 63.5 11 L 59.5 15 Q 60.5 4 53.5 1 L 52.5 0 Z "></path><path fill="rgb(0,0,0)" stroke="rgb(0,0,0)" stroke-width="1" opacity="0" d="M 46.5 2 L 50.5 3 L 56 8.5 L 57 12.5 L 56 16.5 L 50.5 22 L 42.5 22 L 37 16.5 L 36 12.5 L 39 5 L 46.5 2 Z "></path><path fill="rgb(0,0,0)" stroke="rgb(0,0,0)" stroke-width="1" opacity="0" d="M 22.5 12 L 26.5 13 L 32 18.5 Q 33.6 28.6 27.5 31 L 18.5 32 L 15 30 L 12 21.5 L 15 15 L 22.5 12 Z "></path><path fill="rgb(0,0,0)" stroke="rgb(0,0,0)" stroke-width="1" opacity="0" d="M 70.5 12 L 78 15 L 81 23.5 Q 79.6 29.6 74.5 32 Q 63.4 33.6 61 26.5 L 61 18.5 L 66.5 13 L 70.5 12 Z "></path><path fill="rgb(0,0,0)" stroke="rgb(0,0,0)" stroke-width="1" opacity="0" d="M 35.5 20 Q 37.9 24.4 43 25 L 44 30 L 36.5 33 L 34 27.5 L 35.5 20 Z "></path><path fill="rgb(0,0,0)" stroke="rgb(0,0,0)" stroke-width="1" opacity="0" d="M 57.5 20 L 59 29.5 L 56.5 33 L 49 30 L 50 25 Q 55 24.4 57.5 20 Z "></path><path fill="rgb(0,0,0)" stroke="rgb(0,0,0)" stroke-width="1" opacity="0" d="M 27.5 34 Q 32.3 33.3 33 36.5 L 30 44 L 25 43 L 20.5 36 L 19 35.5 L 27.5 34 Z "></path><path fill="rgb(0,0,0)" stroke="rgb(0,0,0)" stroke-width="1" opacity="0" d="M 43.5 34 L 49.5 34 L 57 39.5 Q 60 42.5 59 49.5 L 53.5 57 Q 50.5 60 43.5 59 L 36 53.5 Q 33 50.5 34 43.5 L 39.5 36 L 43.5 34 Z "></path><path fill="rgb(0,0,0)" stroke="rgb(0,0,0)" stroke-width="1" opacity="0" d="M 63.5 34 L 74 35.5 L 70 38.5 L 68 43 L 63 44 L 60 36.5 L 63.5 34 Z "></path><path fill="rgb(0,0,0)" stroke="rgb(0,0,0)" stroke-width="1" opacity="0" d="M 8.5 37 L 16.5 37 L 22 42.5 L 22 50.5 L 16.5 56 L 12.5 57 L 5 54 L 2 46.5 L 5 39 L 8.5 37 Z "></path><path fill="rgb(0,0,0)" stroke="rgb(0,0,0)" stroke-width="1" opacity="0" d="M 76.5 37 L 84.5 37 L 88 39 L 91 47.5 L 88 54 L 80.5 57 L 76.5 56 L 71 50.5 L 71 42.5 L 76.5 37 Z "></path><path fill="rgb(0,0,0)" stroke="rgb(0,0,0)" stroke-width="1" opacity="0" d="M 27.5 49 Q 30.8 47.9 30 50.5 L 33 56.5 L 27.5 59 L 20 57.5 L 27.5 49 Z "></path><path fill="rgb(0,0,0)" stroke="rgb(0,0,0)" stroke-width="1" opacity="0" d="M 63 49 L 68 50 Q 68.5 55 73 57.5 L 63.5 59 L 60 56.5 L 63 49 Z "></path><path fill="rgb(0,0,0)" stroke="rgb(0,0,0)" stroke-width="1" opacity="0" d="M 0.5 52 L 5.5 58 L 15 59.5 Q 9.3 62.8 9 71.5 Q 10.1 78.9 15.5 82 L 22.5 84 L 29.5 82 L 33.5 78 L 34 85.5 L 39.5 92 L 41 92.5 L 0 93 L 0.5 52 Z "></path><path fill="rgb(0,0,0)" stroke="rgb(0,0,0)" stroke-width="1" opacity="0" d="M 92.5 52 L 93 93 L 52 92.5 L 58 87.5 L 59.5 78 Q 62.8 83.7 71.5 84 Q 78.9 82.9 82 77.5 L 84 70.5 L 82 63.5 L 78.5 60 L 77 59.5 Q 88.7 60.7 92 53.5 L 92.5 52 Z "></path><path fill="rgb(0,0,0)" stroke="rgb(0,0,0)" stroke-width="1" opacity="0" d="M 36.5 60 L 44 63 L 43 68 Q 38.3 68.5 36 72.5 L 35.5 74 L 34 63.5 L 36.5 60 Z "></path><path fill="rgb(0,0,0)" stroke="rgb(0,0,0)" stroke-width="1" opacity="0" d="M 56.5 60 L 59 65.5 L 57.5 74 L 54.5 70 L 50 68 L 49 63 L 56.5 60 Z "></path><path fill="rgb(0,0,0)" stroke="rgb(0,0,0)" stroke-width="1" opacity="0" d="M 18.5 61 Q 28.6 59.4 31 65.5 L 32 74.5 L 30 78 L 21.5 81 L 14 76.5 L 12 69.5 Q 13.4 63.4 18.5 61 Z "></path><path fill="rgb(0,0,0)" stroke="rgb(0,0,0)" stroke-width="1" opacity="0" d="M 67.5 61 L 74.5 61 L 80 66.5 L 81 71.5 L 78 78 L 70.5 81 L 63 78 L 61 74.5 L 61 67.5 L 65.5 62 L 67.5 61 Z "></path><path fill="rgb(0,0,0)" stroke="rgb(0,0,0)" stroke-width="1" opacity="0" d="M 42.5 71 L 50.5 71 L 56 76.5 L 57 80.5 L 54 88 L 45.5 91 L 39 88 L 36 80.5 L 37 76.5 L 42.5 71 Z "></path><path fill="rgb(67,67,67)" stroke="rgb(67,67,67)" stroke-width="1" opacity="0.9882352941176471" d="M 23.5 10 L 22.5 12 L 23.5 10 Z "></path><path fill="rgb(67,67,67)" stroke="rgb(67,67,67)" stroke-width="1" opacity="0.9882352941176471" d="M 69.5 10 L 72 10.5 Q 69.9 13.8 69.5 10 Z "></path><path fill="rgb(67,67,67)" stroke="rgb(67,67,67)" stroke-width="1" opacity="0.9882352941176471" d="M 14.5 13 L 13.5 15 L 14.5 13 Z "></path><path fill="rgb(67,67,67)" stroke="rgb(67,67,67)" stroke-width="1" opacity="0.9882352941176471" d="M 78.5 13 L 79.5 15 L 78.5 13 Z "></path><path fill="rgb(67,67,67)" stroke="rgb(67,67,67)" stroke-width="1" opacity="0.9882352941176471" d="M 55.5 36 L 56.5 38 L 55.5 36 Z "></path><path fill="rgb(67,67,67)" stroke="rgb(67,67,67)" stroke-width="1" opacity="0.9882352941176471" d="M 59.5 57 L 60.5 59 L 59.5 57 Z "></path><path fill="rgb(67,67,67)" stroke="rgb(67,67,67)" stroke-width="1" opacity="0.9882352941176471" d="M 13.5 78 L 14.5 80 L 13.5 78 Z "></path><path fill="rgb(67,67,67)" stroke="rgb(67,67,67)" stroke-width="1" opacity="0.9882352941176471" d="M 79.5 78 L 78.5 80 L 79.5 78 Z "></path><path fill="rgb(71,71,71)" stroke="rgb(71,71,71)" stroke-width="1" opacity="0.0784313725490196" d="M 39.5 1 L 35.5 6 L 39.5 1 Z "></path><path fill="rgb(71,71,71)" stroke="rgb(71,71,71)" stroke-width="1" opacity="0.0784313725490196" d="M 53.5 1 L 57.5 6 L 53.5 1 Z "></path><path fill="rgb(71,71,71)" stroke="rgb(71,71,71)" stroke-width="1" opacity="0.0784313725490196" d="M 41.5 3 L 40.5 5 L 41.5 3 Z "></path><path fill="rgb(71,71,71)" stroke="rgb(71,71,71)" stroke-width="1" opacity="0.0784313725490196" d="M 51.5 3 L 54.5 7 L 51.5 3 Z "></path><path fill="rgb(71,71,71)" stroke="rgb(71,71,71)" stroke-width="1" opacity="0.0784313725490196" d="M 15.5 11 L 14.5 13 L 15.5 11 Z "></path><path fill="rgb(71,71,71)" stroke="rgb(71,71,71)" stroke-width="1" opacity="0.0784313725490196" d="M 29.5 11 L 33.5 16 L 29.5 11 Z "></path><path fill="rgb(71,71,71)" stroke="rgb(71,71,71)" stroke-width="1" opacity="0.0784313725490196" d="M 63.5 11 L 59.5 16 L 63.5 11 Z "></path><path fill="rgb(71,71,71)" stroke="rgb(71,71,71)" stroke-width="1" opacity="0.0784313725490196" d="M 77.5 11 L 78.5 13 L 77.5 11 Z "></path><path fill="rgb(71,71,71)" stroke="rgb(71,71,71)" stroke-width="1" opacity="0.0784313725490196" d="M 17.5 13 L 16.5 15 L 17.5 13 Z "></path><path fill="rgb(71,71,71)" stroke="rgb(71,71,71)" stroke-width="1" opacity="0.0784313725490196" d="M 75.5 13 L 76.5 15 L 75.5 13 Z "></path><path fill="rgb(71,71,71)" stroke="rgb(71,71,71)" stroke-width="1" opacity="0.0784313725490196" d="M 28.5 14 L 30.5 17 L 28.5 14 Z "></path><path fill="rgb(71,71,71)" stroke="rgb(71,71,71)" stroke-width="1" opacity="0.0784313725490196" d="M 64.5 14 L 62.5 17 L 64.5 14 Z "></path><path fill="rgb(71,71,71)" stroke="rgb(71,71,71)" stroke-width="1" opacity="0.0784313725490196" d="M 80.5 14 L 81.5 16 L 80.5 14 Z "></path><path fill="rgb(71,71,71)" stroke="rgb(71,71,71)" stroke-width="1" opacity="0.0784313725490196" d="M 14.5 16 L 13.5 18 L 14.5 16 Z "></path><path fill="rgb(71,71,71)" stroke="rgb(71,71,71)" stroke-width="1" opacity="0.0784313725490196" d="M 78.5 16 L 79.5 18 L 78.5 16 Z "></path><path fill="rgb(71,71,71)" stroke="rgb(71,71,71)" stroke-width="1" opacity="0.0784313725490196" d="M 38.5 18 L 40.5 21 L 38.5 18 Z "></path><path fill="rgb(71,71,71)" stroke="rgb(71,71,71)" stroke-width="1" opacity="0.0784313725490196" d="M 54.5 18 L 52.5 21 L 54.5 18 Z "></path><path fill="rgb(71,71,71)" stroke="rgb(71,71,71)" stroke-width="1" opacity="0.0784313725490196" d="M 35.5 19 L 39.5 24 L 35.5 19 Z "></path><path fill="rgb(71,71,71)" stroke="rgb(71,71,71)" stroke-width="1" opacity="0.0784313725490196" d="M 57.5 19 L 53.5 24 L 57.5 19 Z "></path><path fill="rgb(71,71,71)" stroke="rgb(71,71,71)" stroke-width="1" opacity="0.0784313725490196" d="M 32.5 21 L 33 23.5 L 32 23.5 L 32.5 21 Z "></path><path fill="rgb(71,71,71)" stroke="rgb(71,71,71)" stroke-width="1" opacity="0.0784313725490196" d="M 60.5 21 L 61 23.5 L 60 23.5 L 60.5 21 Z "></path><path fill="rgb(71,71,71)" stroke="rgb(71,71,71)" stroke-width="1" opacity="0.0784313725490196" d="M 44.5 22 L 49 22.5 L 44.5 23 L 44.5 22 Z "></path><path fill="rgb(71,71,71)" stroke="rgb(71,71,71)" stroke-width="1" opacity="0.0784313725490196" d="M 13.5 27 L 14.5 29 L 13.5 27 Z "></path><path fill="rgb(71,71,71)" stroke="rgb(71,71,71)" stroke-width="1" opacity="0.0784313725490196" d="M 30.5 28 L 28.5 31 L 30.5 28 Z "></path><path fill="rgb(71,71,71)" stroke="rgb(71,71,71)" stroke-width="1" opacity="0.0784313725490196" d="M 62.5 28 L 64.5 31 L 62.5 28 Z "></path><path fill="rgb(71,71,71)" stroke="rgb(71,71,71)" stroke-width="1" opacity="0.0784313725490196" d="M 78.5 28 L 76.5 31 L 78.5 28 Z "></path><path fill="rgb(71,71,71)" stroke="rgb(71,71,71)" stroke-width="1" opacity="0.0784313725490196" d="M 11.5 29 L 12.5 31 L 11.5 29 Z "></path><path fill="rgb(71,71,71)" stroke="rgb(71,71,71)" stroke-width="1" opacity="0.0784313725490196" d="M 81.5 29 L 77.5 34 L 81.5 29 Z "></path><path fill="rgb(71,71,71)" stroke="rgb(71,71,71)" stroke-width="1" opacity="0.0784313725490196" d="M 14.5 32 L 15.5 34 L 14.5 32 Z "></path><path fill="rgb(71,71,71)" stroke="rgb(71,71,71)" stroke-width="1" opacity="0.0784313725490196" d="M 21.5 32 L 24 32.5 L 21.5 33 L 21.5 32 Z "></path><path fill="rgb(71,71,71)" stroke="rgb(71,71,71)" stroke-width="1" opacity="0.0784313725490196" d="M 69.5 32 L 72 32.5 L 69.5 33 L 69.5 32 Z "></path><path fill="rgb(71,71,71)" stroke="rgb(71,71,71)" stroke-width="1" opacity="0.0784313725490196" d="M 87.5 35 L 91.5 40 L 87.5 35 Z "></path><path fill="rgb(71,71,71)" stroke="rgb(71,71,71)" stroke-width="1" opacity="0.0784313725490196" d="M 4.5 36 L 1.5 40 L 4.5 36 Z "></path><path fill="rgb(71,71,71)" stroke="rgb(71,71,71)" stroke-width="1" opacity="0.0784313725490196" d="M 10.5 36 L 14 36.5 L 10.5 37 L 10.5 36 Z "></path><path fill="rgb(71,71,71)" stroke="rgb(71,71,71)" stroke-width="1" opacity="0.0784313725490196" d="M 20.5 36 L 22.5 39 L 20.5 36 Z "></path><path fill="rgb(71,71,71)" stroke="rgb(71,71,71)" stroke-width="1" opacity="0.0784313725490196" d="M 72.5 36 L 70.5 39 L 72.5 36 Z "></path><path fill="rgb(71,71,71)" stroke="rgb(71,71,71)" stroke-width="1" opacity="0.0784313725490196" d="M 79.5 36 L 82 36.5 L 79.5 37 L 79.5 36 Z "></path><path fill="rgb(71,71,71)" stroke="rgb(71,71,71)" stroke-width="1" opacity="0.0784313725490196" d="M 18.5 38 L 20.5 41 L 18.5 38 Z "></path><path fill="rgb(71,71,71)" stroke="rgb(71,71,71)" stroke-width="1" opacity="0.0784313725490196" d="M 74.5 38 L 72.5 41 L 74.5 38 Z "></path><path fill="rgb(71,71,71)" stroke="rgb(71,71,71)" stroke-width="1" opacity="0.0784313725490196" d="M 70.5 44 L 71 48.5 L 70 48.5 L 70.5 44 Z "></path><path fill="rgb(71,71,71)" stroke="rgb(71,71,71)" stroke-width="1" opacity="0.0784313725490196" d="M 22.5 45 L 23 47.5 L 22 47.5 L 22.5 45 Z "></path><path fill="rgb(71,71,71)" stroke="rgb(71,71,71)" stroke-width="1" opacity="0.0784313725490196" d="M 26.5 49 L 24.5 52 L 26.5 49 Z "></path><path fill="rgb(71,71,71)" stroke="rgb(71,71,71)" stroke-width="1" opacity="0.0784313725490196" d="M 3.5 51 L 4.5 53 L 3.5 51 Z "></path><path fill="rgb(71,71,71)" stroke="rgb(71,71,71)" stroke-width="1" opacity="0.0784313725490196" d="M 89.5 51 L 88.5 53 L 89.5 51 Z "></path><path fill="rgb(71,71,71)" stroke="rgb(71,71,71)" stroke-width="1" opacity="0.0784313725490196" d="M 20.5 52 L 18.5 55 L 20.5 52 Z "></path><path fill="rgb(71,71,71)" stroke="rgb(71,71,71)" stroke-width="1" opacity="0.0784313725490196" d="M 72.5 52 L 74.5 55 L 72.5 52 Z "></path><path fill="rgb(71,71,71)" stroke="rgb(71,71,71)" stroke-width="1" opacity="0.0784313725490196" d="M 1.5 53 L 2.5 55 L 1.5 53 Z "></path><path fill="rgb(71,71,71)" stroke="rgb(71,71,71)" stroke-width="1" opacity="0.0784313725490196" d="M 69.5 53 L 73.5 58 L 69.5 53 Z "></path><path fill="rgb(71,71,71)" stroke="rgb(71,71,71)" stroke-width="1" opacity="0.0784313725490196" d="M 91.5 53 L 87.5 58 L 91.5 53 Z "></path><path fill="rgb(71,71,71)" stroke="rgb(71,71,71)" stroke-width="1" opacity="0.0784313725490196" d="M 6.5 54 L 7.5 56 L 6.5 54 Z "></path><path fill="rgb(71,71,71)" stroke="rgb(71,71,71)" stroke-width="1" opacity="0.0784313725490196" d="M 22.5 54 L 19.5 58 L 22.5 54 Z "></path><path fill="rgb(71,71,71)" stroke="rgb(71,71,71)" stroke-width="1" opacity="0.0784313725490196" d="M 4.5 56 L 5.5 58 L 4.5 56 Z "></path><path fill="rgb(71,71,71)" stroke="rgb(71,71,71)" stroke-width="1" opacity="0.0784313725490196" d="M 15.5 59 L 11.5 64 L 15.5 59 Z "></path><path fill="rgb(71,71,71)" stroke="rgb(71,71,71)" stroke-width="1" opacity="0.0784313725490196" d="M 21.5 60 L 24 60.5 L 21.5 61 L 21.5 60 Z "></path><path fill="rgb(71,71,71)" stroke="rgb(71,71,71)" stroke-width="1" opacity="0.0784313725490196" d="M 69.5 60 L 72 60.5 L 69.5 61 L 69.5 60 Z "></path><path fill="rgb(71,71,71)" stroke="rgb(71,71,71)" stroke-width="1" opacity="0.0784313725490196" d="M 78.5 60 L 81.5 64 L 78.5 60 Z "></path><path fill="rgb(71,71,71)" stroke="rgb(71,71,71)" stroke-width="1" opacity="0.0784313725490196" d="M 16.5 62 L 14.5 65 L 16.5 62 Z "></path><path fill="rgb(71,71,71)" stroke="rgb(71,71,71)" stroke-width="1" opacity="0.0784313725490196" d="M 28.5 62 L 30.5 65 L 28.5 62 Z "></path><path fill="rgb(71,71,71)" stroke="rgb(71,71,71)" stroke-width="1" opacity="0.0784313725490196" d="M 64.5 62 L 62.5 65 L 64.5 62 Z "></path><path fill="rgb(71,71,71)" stroke="rgb(71,71,71)" stroke-width="1" opacity="0.0784313725490196" d="M 76.5 62 L 78.5 65 L 76.5 62 Z "></path><path fill="rgb(71,71,71)" stroke="rgb(71,71,71)" stroke-width="1" opacity="0.0784313725490196" d="M 9.5 69 L 10 71.5 L 9 71.5 L 9.5 69 Z "></path><path fill="rgb(71,71,71)" stroke="rgb(71,71,71)" stroke-width="1" opacity="0.0784313725490196" d="M 32.5 69 L 33 71.5 L 32 71.5 L 32.5 69 Z "></path><path fill="rgb(71,71,71)" stroke="rgb(71,71,71)" stroke-width="1" opacity="0.0784313725490196" d="M 39.5 69 L 36.5 73 L 39.5 69 Z "></path><path fill="rgb(71,71,71)" stroke="rgb(71,71,71)" stroke-width="1" opacity="0.0784313725490196" d="M 60.5 69 L 61 71.5 L 60 71.5 L 60.5 69 Z "></path><path fill="rgb(71,71,71)" stroke="rgb(71,71,71)" stroke-width="1" opacity="0.0784313725490196" d="M 45.5 70 L 48 70.5 L 45.5 71 L 45.5 70 Z "></path><path fill="rgb(71,71,71)" stroke="rgb(71,71,71)" stroke-width="1" opacity="0.0784313725490196" d="M 54.5 70 L 56.5 73 L 54.5 70 Z "></path><path fill="rgb(71,71,71)" stroke="rgb(71,71,71)" stroke-width="1" opacity="0.0784313725490196" d="M 40.5 72 L 38.5 75 L 40.5 72 Z "></path><path fill="rgb(71,71,71)" stroke="rgb(71,71,71)" stroke-width="1" opacity="0.0784313725490196" d="M 52.5 72 L 54.5 75 L 52.5 72 Z "></path><path fill="rgb(71,71,71)" stroke="rgb(71,71,71)" stroke-width="1" opacity="0.0784313725490196" d="M 79.5 75 L 78.5 77 L 79.5 75 Z "></path><path fill="rgb(71,71,71)" stroke="rgb(71,71,71)" stroke-width="1" opacity="0.0784313725490196" d="M 33.5 77 L 29.5 82 L 33.5 77 Z "></path><path fill="rgb(71,71,71)" stroke="rgb(71,71,71)" stroke-width="1" opacity="0.0784313725490196" d="M 59.5 77 L 60.5 79 L 59.5 77 Z "></path><path fill="rgb(71,71,71)" stroke="rgb(71,71,71)" stroke-width="1" opacity="0.0784313725490196" d="M 81.5 77 L 80.5 79 L 81.5 77 Z "></path><path fill="rgb(71,71,71)" stroke="rgb(71,71,71)" stroke-width="1" opacity="0.0784313725490196" d="M 16.5 78 L 17.5 80 L 16.5 78 Z "></path><path fill="rgb(71,71,71)" stroke="rgb(71,71,71)" stroke-width="1" opacity="0.0784313725490196" d="M 64.5 78 L 65.5 80 L 64.5 78 Z "></path><path fill="rgb(71,71,71)" stroke="rgb(71,71,71)" stroke-width="1" opacity="0.0784313725490196" d="M 76.5 78 L 75.5 80 L 76.5 78 Z "></path><path fill="rgb(71,71,71)" stroke="rgb(71,71,71)" stroke-width="1" opacity="0.0784313725490196" d="M 62.5 80 L 63.5 82 L 62.5 80 Z "></path><path fill="rgb(71,71,71)" stroke="rgb(71,71,71)" stroke-width="1" opacity="0.0784313725490196" d="M 69.5 83 L 72 83.5 L 69.5 84 L 69.5 83 Z "></path><path fill="rgb(71,71,71)" stroke="rgb(71,71,71)" stroke-width="1" opacity="0.0784313725490196" d="M 37.5 85 L 38.5 87 L 37.5 85 Z "></path><path fill="rgb(71,71,71)" stroke="rgb(71,71,71)" stroke-width="1" opacity="0.0784313725490196" d="M 57.5 87 L 56.5 89 L 57.5 87 Z "></path><path fill="rgb(71,71,71)" stroke="rgb(71,71,71)" stroke-width="1" opacity="0.0784313725490196" d="M 36.5 88 L 39.5 92 L 36.5 88 Z "></path><path fill="rgb(71,71,71)" stroke="rgb(71,71,71)" stroke-width="1" opacity="0.0784313725490196" d="M 40.5 88 L 41.5 90 L 40.5 88 Z "></path><path fill="rgb(71,71,71)" stroke="rgb(71,71,71)" stroke-width="1" opacity="0.0784313725490196" d="M 52.5 88 L 51.5 90 L 52.5 88 Z "></path><path fill="rgb(71,71,71)" stroke="rgb(71,71,71)" stroke-width="1" opacity="0.0784313725490196" d="M 54.5 90 L 53.5 92 L 54.5 90 Z "></path><path fill="rgb(66,66,66)" stroke="rgb(66,66,66)" stroke-width="1" opacity="0.3803921568627451" d="M 13.5 13 L 12.5 15 L 13.5 13 Z "></path><path fill="rgb(66,66,66)" stroke="rgb(66,66,66)" stroke-width="1" opacity="0.3803921568627451" d="M 48.5 28 L 50 30.5 L 48 29.5 L 48.5 28 Z "></path><path fill="rgb(66,66,66)" stroke="rgb(66,66,66)" stroke-width="1" opacity="0.3803921568627451" d="M 44.5 29 L 43.5 31 L 44.5 29 Z "></path><path fill="rgb(66,66,66)" stroke="rgb(66,66,66)" stroke-width="1" opacity="0.3803921568627451" d="M 57.5 32 L 56.5 34 L 57.5 32 Z "></path><path fill="rgb(66,66,66)" stroke="rgb(66,66,66)" stroke-width="1" opacity="0.3803921568627451" d="M 31.5 34 L 32.5 36 L 31.5 34 Z "></path><path fill="rgb(66,66,66)" stroke="rgb(66,66,66)" stroke-width="1" opacity="0.3803921568627451" d="M 38.5 36 L 36.5 39 L 38.5 36 Z "></path><path fill="rgb(66,66,66)" stroke="rgb(66,66,66)" stroke-width="1" opacity="0.3803921568627451" d="M 54.5 36 L 56.5 39 L 54.5 36 Z "></path><path fill="rgb(66,66,66)" stroke="rgb(66,66,66)" stroke-width="1" opacity="0.3803921568627451" d="M 30.5 43 L 29.5 45 L 30.5 43 Z "></path><path fill="rgb(66,66,66)" stroke="rgb(66,66,66)" stroke-width="1" opacity="0.3803921568627451" d="M 62.5 43 L 65 44.5 L 63.5 45 L 62.5 43 Z "></path><path fill="rgb(66,66,66)" stroke="rgb(66,66,66)" stroke-width="1" opacity="0.3803921568627451" d="M 33.5 56 L 32.5 58 L 33.5 56 Z "></path><path fill="rgb(66,66,66)" stroke="rgb(66,66,66)" stroke-width="1" opacity="0.3803921568627451" d="M 36.5 59 L 35.5 61 L 36.5 59 Z "></path><path fill="rgb(66,66,66)" stroke="rgb(66,66,66)" stroke-width="1" opacity="0.3803921568627451" d="M 43.5 62 L 44.5 64 L 43.5 62 Z "></path><path fill="rgb(66,66,66)" stroke="rgb(66,66,66)" stroke-width="1" opacity="0.3803921568627451" d="M 49.5 62 L 48.5 64 L 49.5 62 Z "></path><path fill="rgb(66,66,66)" stroke="rgb(66,66,66)" stroke-width="1" opacity="0.3803921568627451" d="M 12.5 78 L 14.5 81 L 12.5 78 Z "></path><path fill="rgb(66,66,66)" stroke="rgb(66,66,66)" stroke-width="1" opacity="0.3803921568627451" d="M 79.5 79 L 78.5 81 L 79.5 79 Z "></path><path fill="rgb(66,66,66)" stroke="rgb(66,66,66)" stroke-width="1" opacity="0.792156862745098" d="M 39.5 2 L 40.5 4 L 39.5 2 Z "></path><path fill="rgb(66,66,66)" stroke="rgb(66,66,66)" stroke-width="1" opacity="0.792156862745098" d="M 53.5 2 L 52.5 4 L 53.5 2 Z "></path><path fill="rgb(66,66,66)" stroke="rgb(66,66,66)" stroke-width="1" opacity="0.792156862745098" d="M 36.5 5 L 37.5 7 L 36.5 5 Z "></path><path fill="rgb(66,66,66)" stroke="rgb(66,66,66)" stroke-width="1" opacity="0.792156862745098" d="M 56.5 5 L 55.5 7 L 56.5 5 Z "></path><path fill="rgb(66,66,66)" stroke="rgb(66,66,66)" stroke-width="1" opacity="0.792156862745098" d="M 63.5 12 L 64.5 14 L 63.5 12 Z "></path><path fill="rgb(66,66,66)" stroke="rgb(66,66,66)" stroke-width="1" opacity="0.792156862745098" d="M 77.5 12 L 76.5 14 L 77.5 12 Z "></path><path fill="rgb(66,66,66)" stroke="rgb(66,66,66)" stroke-width="1" opacity="0.792156862745098" d="M 37.5 18 L 36.5 20 L 37.5 18 Z "></path><path fill="rgb(66,66,66)" stroke="rgb(66,66,66)" stroke-width="1" opacity="0.792156862745098" d="M 40.5 21 L 39.5 23 L 40.5 21 Z "></path><path fill="rgb(66,66,66)" stroke="rgb(66,66,66)" stroke-width="1" opacity="0.792156862745098" d="M 13.5 28 L 12.5 30 L 13.5 28 Z "></path><path fill="rgb(66,66,66)" stroke="rgb(66,66,66)" stroke-width="1" opacity="0.792156862745098" d="M 79.5 28 L 80.5 30 L 79.5 28 Z "></path><path fill="rgb(66,66,66)" stroke="rgb(66,66,66)" stroke-width="1" opacity="0.792156862745098" d="M 30.5 29 L 29.5 31 L 30.5 29 Z "></path><path fill="rgb(66,66,66)" stroke="rgb(66,66,66)" stroke-width="1" opacity="0.792156862745098" d="M 62.5 29 L 63.5 31 L 62.5 29 Z "></path><path fill="rgb(66,66,66)" stroke="rgb(66,66,66)" stroke-width="1" opacity="0.792156862745098" d="M 16.5 31 L 15.5 33 L 16.5 31 Z "></path><path fill="rgb(66,66,66)" stroke="rgb(66,66,66)" stroke-width="1" opacity="0.792156862745098" d="M 76.5 31 L 77.5 33 L 76.5 31 Z "></path><path fill="rgb(66,66,66)" stroke="rgb(66,66,66)" stroke-width="1" opacity="0.792156862745098" d="M 5.5 36 L 6.5 38 L 5.5 36 Z "></path><path fill="rgb(66,66,66)" stroke="rgb(66,66,66)" stroke-width="1" opacity="0.792156862745098" d="M 87.5 36 L 86.5 38 L 87.5 36 Z "></path><path fill="rgb(66,66,66)" stroke="rgb(66,66,66)" stroke-width="1" opacity="0.792156862745098" d="M 19.5 38 L 20.5 40 L 19.5 38 Z "></path><path fill="rgb(66,66,66)" stroke="rgb(66,66,66)" stroke-width="1" opacity="0.792156862745098" d="M 2.5 39 L 3.5 41 L 2.5 39 Z "></path><path fill="rgb(66,66,66)" stroke="rgb(66,66,66)" stroke-width="1" opacity="0.792156862745098" d="M 90.5 39 L 89.5 41 L 90.5 39 Z "></path><path fill="rgb(66,66,66)" stroke="rgb(66,66,66)" stroke-width="1" opacity="0.792156862745098" d="M 3.5 52 L 2.5 54 L 3.5 52 Z "></path><path fill="rgb(66,66,66)" stroke="rgb(66,66,66)" stroke-width="1" opacity="0.792156862745098" d="M 89.5 52 L 90.5 54 L 89.5 52 Z "></path><path fill="rgb(66,66,66)" stroke="rgb(66,66,66)" stroke-width="1" opacity="0.792156862745098" d="M 6.5 55 L 5.5 57 L 6.5 55 Z "></path><path fill="rgb(66,66,66)" stroke="rgb(66,66,66)" stroke-width="1" opacity="0.792156862745098" d="M 74.5 55 L 73.5 57 L 74.5 55 Z "></path><path fill="rgb(66,66,66)" stroke="rgb(66,66,66)" stroke-width="1" opacity="0.792156862745098" d="M 86.5 55 L 87.5 57 L 86.5 55 Z "></path><path fill="rgb(66,66,66)" stroke="rgb(66,66,66)" stroke-width="1" opacity="0.792156862745098" d="M 69.5 58 L 72 58.5 L 69.5 59 L 69.5 58 Z "></path><path fill="rgb(66,66,66)" stroke="rgb(66,66,66)" stroke-width="1" opacity="0.792156862745098" d="M 29.5 62 L 30.5 64 L 29.5 62 Z "></path><path fill="rgb(66,66,66)" stroke="rgb(66,66,66)" stroke-width="1" opacity="0.792156862745098" d="M 63.5 62 L 62.5 64 L 63.5 62 Z "></path><path fill="rgb(66,66,66)" stroke="rgb(66,66,66)" stroke-width="1" opacity="0.792156862745098" d="M 12.5 63 L 13.5 65 L 12.5 63 Z "></path><path fill="rgb(66,66,66)" stroke="rgb(66,66,66)" stroke-width="1" opacity="0.792156862745098" d="M 80.5 63 L 79.5 65 L 80.5 63 Z "></path><path fill="rgb(66,66,66)" stroke="rgb(66,66,66)" stroke-width="1" opacity="0.792156862745098" d="M 58.5 69 L 59 72.5 L 58 72.5 L 58.5 69 Z "></path><path fill="rgb(66,66,66)" stroke="rgb(66,66,66)" stroke-width="1" opacity="0.792156862745098" d="M 61.5 76 L 60.5 78 L 61.5 76 Z "></path><path fill="rgb(66,66,66)" stroke="rgb(66,66,66)" stroke-width="1" opacity="0.792156862745098" d="M 28.5 79 L 29.5 81 L 28.5 79 Z "></path><path fill="rgb(66,66,66)" stroke="rgb(66,66,66)" stroke-width="1" opacity="0.792156862745098" d="M 64.5 79 L 63.5 81 L 64.5 79 Z "></path><path fill="rgb(66,66,66)" stroke="rgb(66,66,66)" stroke-width="1" opacity="0.792156862745098" d="M 37.5 86 L 36.5 88 L 37.5 86 Z "></path><path fill="rgb(66,66,66)" stroke="rgb(66,66,66)" stroke-width="1" opacity="0.792156862745098" d="M 55.5 86 L 56.5 88 L 55.5 86 Z "></path><path fill="rgb(66,66,66)" stroke="rgb(66,66,66)" stroke-width="1" opacity="0.792156862745098" d="M 40.5 89 L 39.5 91 L 40.5 89 Z "></path><path fill="rgb(66,66,66)" stroke="rgb(66,66,66)" stroke-width="1" opacity="0.792156862745098" d="M 52.5 89 L 53.5 91 L 52.5 89 Z "></path><path fill="rgb(67,67,67)" stroke="rgb(67,67,67)" stroke-width="1" opacity="1" d="M 42.5 1 L 46 1.5 Q 39.5 2 37 6.5 Q 34.7 9.7 36 16.5 L 40.5 22 Q 43.7 24.3 50.5 23 L 56 18.5 Q 58.3 15.3 57 8.5 L 52.5 3 L 47 1.5 L 50.5 1 L 57 6.5 Q 59.3 9.7 58 16.5 L 52.5 23 L 48 26.5 Q 45.9 32.4 50.5 31 L 58 34 L 60 27.5 L 59 26.5 L 59 18.5 L 64.5 12 L 70.5 10 L 75 11.5 L 71.5 12 L 69.5 12 Q 63.1 12.1 61 16.5 Q 58.7 19.7 60 26.5 L 64.5 32 Q 67.7 34.3 74.5 33 L 80 28.5 L 81.5 24 L 82 26.5 L 76.5 33 Q 73.3 35.3 66.5 34 L 63.5 33 L 59 35 L 62 45 Q 68.4 46.3 70 41.5 L 74.5 36 Q 77.7 33.7 84.5 35 L 91 40.5 L 92 44.5 L 91 44.5 Q 90.6 39 86.5 37 Q 83.3 34.7 76.5 36 L 71 40.5 Q 68.7 43.7 70 50.5 L 74.5 56 Q 77.7 58.3 84.5 57 L 90 52.5 L 91.5 48 L 92 50.5 L 86.5 57 L 80.5 59 Q 73.1 57.9 70 52.5 L 66.5 48 Q 60.6 45.9 62 50.5 L 59 57.5 L 65.5 60 L 66.5 59 L 74.5 59 L 81 64.5 L 82 68.5 L 81 68.5 Q 80.6 63 76.5 61 Q 73.3 58.7 66.5 60 L 61 64.5 Q 58.7 67.7 60 74.5 L 64.5 80 L 71.5 82 L 74.5 81 L 74.5 82 L 69.5 83 Q 63 81.5 60 76.5 Q 57.7 73.3 59 66.5 L 60 62.5 L 55.5 59 L 48 62 Q 46.8 68.4 51.5 70 L 57 74.5 Q 59.3 77.7 58 84.5 L 52.5 91 L 56 86.5 Q 58.3 83.3 57 76.5 L 52.5 71 Q 49.3 68.7 42.5 70 L 37 74.5 Q 34.7 77.7 36 84.5 L 41 90.5 L 36 86.5 Q 33.7 83.3 35 76.5 L 40.5 70 L 45 66.5 Q 47.1 60.6 42.5 62 L 35 59 L 33 62.5 L 33 65.5 L 34 66.5 L 34 74.5 L 28.5 81 L 24.5 82 L 24.5 81 Q 30.1 80.6 32 76.5 Q 34.3 73.3 33 66.5 L 28.5 61 Q 25.3 58.7 18.5 60 L 13 64.5 L 11.5 69 L 11 66.5 L 16.5 60 Q 19.7 57.7 26.5 59 L 30.5 60 L 34 58 L 31 48 Q 24.6 46.8 23 51.5 L 18.5 57 Q 15.3 59.3 8.5 58 L 2 52.5 L 1 48.5 L 2 48.5 Q 2.5 54.1 6.5 56 Q 9.7 58.3 16.5 57 L 22 52.5 Q 24.3 49.3 23 42.5 L 18.5 37 Q 15.3 34.7 8.5 36 L 3 40.5 L 1.5 45 L 1 42.5 L 6.5 36 Q 9.7 33.7 16.5 35 L 23 40.5 L 26.5 45 Q 32.4 47.1 31 42.5 L 34 36.5 L 33 34 L 27.5 33 L 26.5 34 L 18.5 34 L 12 28.5 L 11 24.5 L 12 24.5 Q 12.5 30.1 16.5 32 Q 19.7 34.3 26.5 33 L 32 28.5 Q 34.3 25.3 33 18.5 L 28.5 13 L 22.5 11 L 18.5 12 L 18.5 11 L 22.5 10 Q 29.9 11.1 33 16.5 Q 35.3 19.7 34 26.5 L 33 30.5 L 35 34 L 45 31 Q 46.3 24.6 41.5 23 L 36 18.5 Q 33.7 15.3 35 8.5 L 40.5 2 L 42.5 1 Z M 44 33 L 38 36 L 33 44 Q 32 51 35 55 Q 38 59 44 60 Q 51 61 55 58 L 60 50 Q 61 41 57 38 Q 54 32 44 33 Z "></path><path fill="rgb(67,67,67)" stroke="rgb(67,67,67)" stroke-width="1" opacity="1" d="M 16.5 12 L 12.5 17 L 16.5 12 Z "></path><path fill="rgb(67,67,67)" stroke="rgb(67,67,67)" stroke-width="1" opacity="1" d="M 76.5 12 L 80.5 17 L 76.5 12 Z "></path><path fill="rgb(67,67,67)" stroke="rgb(67,67,67)" stroke-width="1" opacity="1" d="M 11.5 18 L 12 20.5 L 11 20.5 L 11.5 18 Z "></path><path fill="rgb(67,67,67)" stroke="rgb(67,67,67)" stroke-width="1" opacity="1" d="M 81.5 18 L 83 22.5 L 82 22.5 L 81.5 18 Z "></path><path fill="rgb(67,67,67)" stroke="rgb(67,67,67)" stroke-width="1" opacity="1" d="M 10.5 70 L 12 74.5 L 11 74.5 L 10.5 70 Z "></path><path fill="rgb(67,67,67)" stroke="rgb(67,67,67)" stroke-width="1" opacity="1" d="M 81.5 72 L 82 74.5 L 76.5 81 L 80 76.5 L 81.5 72 Z "></path><path fill="rgb(67,67,67)" stroke="rgb(67,67,67)" stroke-width="1" opacity="1" d="M 12.5 76 L 16.5 81 L 12.5 76 Z "></path><path fill="rgb(67,67,67)" stroke="rgb(67,67,67)" stroke-width="1" opacity="1" d="M 18.5 81 L 23 82.5 L 21.5 83 L 18.5 82 L 18.5 81 Z "></path><path fill="rgb(67,67,67)" stroke="rgb(67,67,67)" stroke-width="1" opacity="1" d="M 42.5 91 L 45 91.5 L 42.5 92 L 42.5 91 Z "></path><path fill="rgb(67,67,67)" stroke="rgb(67,67,67)" stroke-width="1" opacity="1" d="M 48.5 91 L 51 91.5 L 48.5 92 L 48.5 91 Z "></path><path fill="rgb(66,66,66)" stroke="rgb(66,66,66)" stroke-width="1" opacity="0.9176470588235294" d="M 55.5 20 L 54.5 22 L 55.5 20 Z "></path><path fill="rgb(66,66,66)" stroke="rgb(66,66,66)" stroke-width="1" opacity="0.9176470588235294" d="M 31.5 78 L 30.5 80 L 31.5 78 Z "></path><path fill="rgb(67,67,67)" stroke="rgb(67,67,67)" stroke-width="1" opacity="0.9098039215686274" d="M 54.5 3 L 55.5 5 L 54.5 3 Z "></path><path fill="rgb(67,67,67)" stroke="rgb(67,67,67)" stroke-width="1" opacity="0.9098039215686274" d="M 58.5 11 L 59 13.5 L 58 13.5 L 58.5 11 Z "></path><path fill="rgb(67,67,67)" stroke="rgb(67,67,67)" stroke-width="1" opacity="0.9098039215686274" d="M 32.5 26 L 33.5 28 L 32.5 26 Z "></path><path fill="rgb(67,67,67)" stroke="rgb(67,67,67)" stroke-width="1" opacity="0.9098039215686274" d="M 60.5 26 L 59.5 28 L 60.5 26 Z "></path><path fill="rgb(67,67,67)" stroke="rgb(67,67,67)" stroke-width="1" opacity="0.9098039215686274" d="M 13.5 30 L 14.5 32 L 13.5 30 Z "></path><path fill="rgb(67,67,67)" stroke="rgb(67,67,67)" stroke-width="1" opacity="0.9098039215686274" d="M 79.5 34 L 82 34.5 L 79.5 35 L 79.5 34 Z "></path><path fill="rgb(67,67,67)" stroke="rgb(67,67,67)" stroke-width="1" opacity="0.9098039215686274" d="M 37.5 36 L 36.5 38 L 37.5 36 Z "></path><path fill="rgb(67,67,67)" stroke="rgb(67,67,67)" stroke-width="1" opacity="0.9098039215686274" d="M 4.5 37 L 3.5 39 L 4.5 37 Z "></path><path fill="rgb(67,67,67)" stroke="rgb(67,67,67)" stroke-width="1" opacity="0.9098039215686274" d="M 20.5 37 L 21.5 39 L 20.5 37 Z "></path><path fill="rgb(67,67,67)" stroke="rgb(67,67,67)" stroke-width="1" opacity="0.9098039215686274" d="M 72.5 37 L 71.5 39 L 72.5 37 Z "></path><path fill="rgb(67,67,67)" stroke="rgb(67,67,67)" stroke-width="1" opacity="0.9098039215686274" d="M 0.5 45 L 1.5 47 L 0.5 45 Z "></path><path fill="rgb(67,67,67)" stroke="rgb(67,67,67)" stroke-width="1" opacity="0.9098039215686274" d="M 92.5 45 L 92.5 48 Q 89.5 46.5 92.5 45 Z "></path><path fill="rgb(67,67,67)" stroke="rgb(67,67,67)" stroke-width="1" opacity="0.9098039215686274" d="M 21.5 54 L 20.5 56 L 21.5 54 Z "></path><path fill="rgb(67,67,67)" stroke="rgb(67,67,67)" stroke-width="1" opacity="0.9098039215686274" d="M 71.5 54 L 72.5 56 L 71.5 54 Z "></path><path fill="rgb(67,67,67)" stroke="rgb(67,67,67)" stroke-width="1" opacity="0.9098039215686274" d="M 89.5 54 L 88.5 56 L 89.5 54 Z "></path><path fill="rgb(67,67,67)" stroke="rgb(67,67,67)" stroke-width="1" opacity="0.9098039215686274" d="M 36.5 55 L 37.5 57 L 36.5 55 Z "></path><path fill="rgb(67,67,67)" stroke="rgb(67,67,67)" stroke-width="1" opacity="0.9098039215686274" d="M 27.5 59 L 26.5 61 L 27.5 59 Z "></path><path fill="rgb(67,67,67)" stroke="rgb(67,67,67)" stroke-width="1" opacity="0.9098039215686274" d="M 75.5 59 L 74.5 61 L 75.5 59 Z "></path><path fill="rgb(67,67,67)" stroke="rgb(67,67,67)" stroke-width="1" opacity="0.9098039215686274" d="M 14.5 61 L 13.5 63 L 14.5 61 Z "></path><path fill="rgb(67,67,67)" stroke="rgb(67,67,67)" stroke-width="1" opacity="0.9098039215686274" d="M 78.5 61 L 79.5 63 L 78.5 61 Z "></path><path fill="rgb(67,67,67)" stroke="rgb(67,67,67)" stroke-width="1" opacity="0.9098039215686274" d="M 33.5 65 L 32.5 67 L 33.5 65 Z "></path><path fill="rgb(67,67,67)" stroke="rgb(67,67,67)" stroke-width="1" opacity="0.9098039215686274" d="M 54.5 71 L 55.5 73 L 54.5 71 Z "></path><path fill="rgb(67,67,67)" stroke="rgb(67,67,67)" stroke-width="1" opacity="0.9098039215686274" d="M 61.5 78 L 62.5 80 L 61.5 78 Z "></path><path fill="rgb(67,67,67)" stroke="rgb(67,67,67)" stroke-width="1" opacity="0.9098039215686274" d="M 34.5 79 L 35 81.5 L 34 81.5 L 34.5 79 Z "></path><path fill="rgb(67,67,67)" stroke="rgb(67,67,67)" stroke-width="1" opacity="0.9098039215686274" d="M 58.5 79 L 59 81.5 L 58 81.5 L 58.5 79 Z "></path><path fill="rgb(67,67,67)" stroke="rgb(67,67,67)" stroke-width="1" opacity="0.9098039215686274" d="M 37.5 88 L 38.5 90 L 37.5 88 Z "></path><path fill="rgb(67,67,67)" stroke="rgb(67,67,67)" stroke-width="1" opacity="0.6352941176470588" d="M 39.5 4 L 38.5 6 L 39.5 4 Z "></path><path fill="rgb(67,67,67)" stroke="rgb(67,67,67)" stroke-width="1" opacity="0.6352941176470588" d="M 53.5 4 L 54.5 6 L 53.5 4 Z "></path><path fill="rgb(67,67,67)" stroke="rgb(67,67,67)" stroke-width="1" opacity="0.6352941176470588" d="M 15.5 14 L 14.5 16 L 15.5 14 Z "></path><path fill="rgb(67,67,67)" stroke="rgb(67,67,67)" stroke-width="1" opacity="0.6352941176470588" d="M 29.5 14 L 30.5 16 L 29.5 14 Z "></path><path fill="rgb(67,67,67)" stroke="rgb(67,67,67)" stroke-width="1" opacity="0.6352941176470588" d="M 63.5 14 L 62.5 16 L 63.5 14 Z "></path><path fill="rgb(67,67,67)" stroke="rgb(67,67,67)" stroke-width="1" opacity="0.6352941176470588" d="M 77.5 14 L 78.5 16 L 77.5 14 Z "></path><path fill="rgb(67,67,67)" stroke="rgb(67,67,67)" stroke-width="1" opacity="0.6352941176470588" d="M 38.5 19 L 39.5 21 L 38.5 19 Z "></path><path fill="rgb(67,67,67)" stroke="rgb(67,67,67)" stroke-width="1" opacity="0.6352941176470588" d="M 54.5 19 L 53.5 21 L 54.5 19 Z "></path><path fill="rgb(67,67,67)" stroke="rgb(67,67,67)" stroke-width="1" opacity="0.6352941176470588" d="M 42.5 24 L 43.5 26 L 42.5 24 Z "></path><path fill="rgb(67,67,67)" stroke="rgb(67,67,67)" stroke-width="1" opacity="0.6352941176470588" d="M 50.5 24 L 49.5 26 L 50.5 24 Z "></path><path fill="rgb(67,67,67)" stroke="rgb(67,67,67)" stroke-width="1" opacity="0.6352941176470588" d="M 14.5 29 L 15.5 31 L 14.5 29 Z "></path><path fill="rgb(67,67,67)" stroke="rgb(67,67,67)" stroke-width="1" opacity="0.6352941176470588" d="M 78.5 29 L 77.5 31 L 78.5 29 Z "></path><path fill="rgb(67,67,67)" stroke="rgb(67,67,67)" stroke-width="1" opacity="0.6352941176470588" d="M 44.5 33 L 49 33.5 L 44.5 34 L 44.5 33 Z "></path><path fill="rgb(67,67,67)" stroke="rgb(67,67,67)" stroke-width="1" opacity="0.6352941176470588" d="M 5.5 38 L 4.5 40 L 5.5 38 Z "></path><path fill="rgb(67,67,67)" stroke="rgb(67,67,67)" stroke-width="1" opacity="0.6352941176470588" d="M 87.5 38 L 88.5 40 L 87.5 38 Z "></path><path fill="rgb(67,67,67)" stroke="rgb(67,67,67)" stroke-width="1" opacity="0.6352941176470588" d="M 24.5 42 L 25.5 44 L 24.5 42 Z "></path><path fill="rgb(67,67,67)" stroke="rgb(67,67,67)" stroke-width="1" opacity="0.6352941176470588" d="M 68.5 42 L 67.5 44 L 68.5 42 Z "></path><path fill="rgb(67,67,67)" stroke="rgb(67,67,67)" stroke-width="1" opacity="0.6352941176470588" d="M 33.5 44 L 34 48.5 L 33 48.5 L 33.5 44 Z "></path><path fill="rgb(67,67,67)" stroke="rgb(67,67,67)" stroke-width="1" opacity="0.6352941176470588" d="M 59.5 44 L 60 48.5 L 59 48.5 L 59.5 44 Z "></path><path fill="rgb(67,67,67)" stroke="rgb(67,67,67)" stroke-width="1" opacity="0.6352941176470588" d="M 27.5 48 L 30 48.5 L 27.5 49 L 27.5 48 Z "></path><path fill="rgb(67,67,67)" stroke="rgb(67,67,67)" stroke-width="1" opacity="0.6352941176470588" d="M 63.5 48 L 66 48.5 L 63.5 49 L 63.5 48 Z "></path><path fill="rgb(67,67,67)" stroke="rgb(67,67,67)" stroke-width="1" opacity="0.6352941176470588" d="M 67.5 49 L 68.5 51 L 67.5 49 Z "></path><path fill="rgb(67,67,67)" stroke="rgb(67,67,67)" stroke-width="1" opacity="0.6352941176470588" d="M 4.5 53 L 5.5 55 L 4.5 53 Z "></path><path fill="rgb(67,67,67)" stroke="rgb(67,67,67)" stroke-width="1" opacity="0.6352941176470588" d="M 72.5 53 L 73.5 55 L 72.5 53 Z "></path><path fill="rgb(67,67,67)" stroke="rgb(67,67,67)" stroke-width="1" opacity="0.6352941176470588" d="M 88.5 53 L 87.5 55 L 88.5 53 Z "></path><path fill="rgb(67,67,67)" stroke="rgb(67,67,67)" stroke-width="1" opacity="0.6352941176470588" d="M 44.5 59 L 49 59.5 L 44.5 60 L 44.5 59 Z "></path><path fill="rgb(67,67,67)" stroke="rgb(67,67,67)" stroke-width="1" opacity="0.6352941176470588" d="M 15.5 62 L 14.5 64 L 15.5 62 Z "></path><path fill="rgb(67,67,67)" stroke="rgb(67,67,67)" stroke-width="1" opacity="0.6352941176470588" d="M 77.5 62 L 78.5 64 L 77.5 62 Z "></path><path fill="rgb(67,67,67)" stroke="rgb(67,67,67)" stroke-width="1" opacity="0.6352941176470588" d="M 43.5 67 L 42.5 69 L 43.5 67 Z "></path><path fill="rgb(67,67,67)" stroke="rgb(67,67,67)" stroke-width="1" opacity="0.6352941176470588" d="M 49.5 67 L 50.5 69 L 49.5 67 Z "></path><path fill="rgb(67,67,67)" stroke="rgb(67,67,67)" stroke-width="1" opacity="0.6352941176470588" d="M 39.5 72 L 38.5 74 L 39.5 72 Z "></path><path fill="rgb(67,67,67)" stroke="rgb(67,67,67)" stroke-width="1" opacity="0.6352941176470588" d="M 53.5 72 L 54.5 74 L 53.5 72 Z "></path><path fill="rgb(67,67,67)" stroke="rgb(67,67,67)" stroke-width="1" opacity="0.6352941176470588" d="M 14.5 77 L 15.5 79 L 14.5 77 Z "></path><path fill="rgb(67,67,67)" stroke="rgb(67,67,67)" stroke-width="1" opacity="0.6352941176470588" d="M 30.5 77 L 29.5 79 L 30.5 77 Z "></path><path fill="rgb(67,67,67)" stroke="rgb(67,67,67)" stroke-width="1" opacity="0.6352941176470588" d="M 62.5 77 L 63.5 79 L 62.5 77 Z "></path><path fill="rgb(67,67,67)" stroke="rgb(67,67,67)" stroke-width="1" opacity="0.6352941176470588" d="M 78.5 77 L 77.5 79 L 78.5 77 Z "></path><path fill="rgb(67,67,67)" stroke="rgb(67,67,67)" stroke-width="1" opacity="0.6352941176470588" d="M 38.5 87 L 39.5 89 L 38.5 87 Z "></path><path fill="rgb(67,67,67)" stroke="rgb(67,67,67)" stroke-width="1" opacity="0.6352941176470588" d="M 54.5 87 L 53.5 89 L 54.5 87 Z "></path></svg>