<svg id="Layer_1" enable-background="new 0 0 510 510" height="512" viewBox="0 0 510 510" width="512" xmlns="http://www.w3.org/2000/svg"><g><g><path d="m451.77 92.796-33.707-33.854c-44.203-36.804-101.048-58.942-163.063-58.942-98.131 0-158.574 55.347-158.741 55.441-3.787 17.481-10.374 42.85-10.374 61.465 0 140.833 118.763 254.972 259.596 254.972 60.017 0 115.159-27.944 158.719-62.639.178-1.087 5.8-23.477 5.8-54.239 0-61.614-21.852-118.125-58.23-162.204z" fill="#ecbe6b"/><path d="m345.459 364.679c-140.833 0-255-114.167-255-255 0-18.615 2.013-36.757 5.8-54.239-.006.005-.011.01-.017.014-58.645 46.721-96.242 118.738-96.242 199.546 0 61.902 22.057 118.653 58.741 162.821l33.196 33.237c5.005 4.167 10.172 8.147 15.491 11.927l61.008 31.946c27.026 9.753 56.174 15.069 86.564 15.069 30.285 0 59.431-5.309 86.508-15.08l109.755-77.1c25.578-30.785 44.094-67.77 52.936-108.582-43.559 34.696-98.724 55.441-158.74 55.441z" fill="#e7a561"/></g><g><path d="m418.056 58.95h-177.183v435.97h100.635c43.071-15.543 80.895-42.386 109.745-77.109v-325.626c-10.024-12.07-21.141-23.196-33.197-33.235z" fill="#d3effb"/><path d="m107.428 462.984c18.634 13.246 39.13 24.04 61.011 31.936h74.494v-435.97h-135.505z" fill="#bed8fb"/><path d="m192.652 15.08h209.92v435.97h-209.92z" fill="#f9f6f6"/><path d="m168.216 15.08h-109.469v77.149 40.465 285.122c10.024 12.069 21.14 23.196 33.197 33.234h102.308v-318.357-117.613z" fill="#efe7e4"/><g><path d="m192.315 237.181h140.515v25h-140.515z" fill="#efe7e4"/></g><g><path d="m192.315 290.025h140.515v25h-140.515z" fill="#efe7e4"/></g><g><path d="m134.289 237.181h59.963v25h-59.963z" fill="#e2dfe2"/></g><g><path d="m192.315 184.178h140.515v25h-140.515z" fill="#efe7e4"/></g><g><path d="m134.289 184.178h59.963v25h-59.963z" fill="#e2dfe2"/></g><g><path d="m134.289 290.025h59.963v25h-59.963z" fill="#e2dfe2"/></g><g><path d="m192.315 65.952h33.625v91.65h-33.625z" fill="#f9ef63"/></g><g><path d="m134.289 65.952h59.963v91.65h-59.963z" fill="#ecbe6b"/></g><g><path d="m254.053 132.693h78.777v25h-78.777z" fill="#efe7e4"/></g><g><g><g><path d="m297.987 410.422-10.553-24.333 10.553-9.902 44.312-44.312 17.117 17.117z" fill="#6ec186"/></g></g><g><g><path d="m297.987 410.422-37.036-37.036 17.117-17.117 19.919 19.918z" fill="#61aab7"/></g></g></g></g></g></svg>